PathFileType	4	(X/Y/Z)	C:/Users/beibeiliu/ov580/test_trc\sequence.41_training_dense_right.trc
DataRate	CameraRate	NumFrames	NumMarkers	Units	OrigDataRate	OrigDataStartFrame	OrigNumFrames
120	120	25	19	mm	120	32	62
Frame#	Time	ThumbCMC			ThumbMCP			ThumbIP			ThumbTip			IndexMCP			IndexPIP			IndexTip			MiddleMCP			MiddlePIP			MiddleTip			RingMCP			RingPIP			RingTip			PinkyMCP			PinkyPIP			PinkyTip			BackHand1			BackHand2			BackHand3	
		X0	Y0	Z0	X1	Y1	Z1	X2	Y2	Z2	X3	Y3	Z3	X4	Y4	Z4	X5	Y5	Z5	X6	Y6	Z6	X7	Y7	Z7	X8	Y8	Z8	X9	Y9	Z9	X10	Y10	Z10	X11	Y11	Z11	X12	Y12	Z12	X13	Y13	Z13	X14	Y14	Z14	X15	Y15	Z15	X16	Y16	Z16	X17	Y17	Z17	X18	Y18	Z18	
31	0.258333	110.624	25.8417	149.65	92.6738	14.7098	122.541	91.825	1.07919	100.612	105.493	-21.5371	88.506	108.925	12.6735	79.1208	89.4029	5.20966	61.289	76.7627	-5.46853	42.1722	127.697	-13.4978	72.8608	117.564	-26.8824	56.2229	105.252	-38.8998	31.1922	116.346	-33.855	95.5871	93.3331	-40.5985	114.792	93.7252	-23.2476	140.778	127.237	-43.9481	110.259	104.879	-40.7567	127.626	107.313	-18.8683	149.988	157.753	-5.90546	124.27	164.949	5.23339	155.573	145.732	22.5783	137.234	
32	0.266667	124.593	45.7711	154.42	101.47	41.606	125.838	93.3993	28.3148	101.455	97.2369	0.752324	93.555	113.51	32.1025	82.7245	88.8318	34.8337	66.155	73.3095	30.0513	51.7065	118.955	2.06297	79.2006	100.053	-3.7122	59.9036	84.9499	-15.8918	39.6339	103.17	-14.0405	99.7834	78.7218	-8.7858	118.294	91.4287	4.27335	148.428	109.007	-26.0606	113.127	89.4249	-17.8621	135.648	106.354	3.76943	155.498	154.488	-8.62413	126.117	163.556	-4.3184	154.886	153.869	24.3751	134.928	
33	0.275	145.704	53.4633	153.879	123.534	63.9506	131.569	107.927	54.4233	107.842	98.3728	27.5431	94.8166	124.758	51.1931	82.1536	107.02	57.5858	69.5598	86.9785	58.9368	53.5093	116.257	15.1162	83.5747	96.8198	18.8911	65.3068	78.2654	18.4687	46.885	94.4142	10.807	103.432	77.9289	24.9404	123.589	94.8739	30.552	150.667	95.6643	-1.27977	117.178	85.3813	14.8196	139.365	110.868	24.7362	162.42	148.979	-5.88156	126.242	160.219	-4.08625	153.018	163.99	27.3129	138.238	
34	0.283333	165.484	46.7994	150.374	149.257	63.5526	126.164	133.535	58.2638	107.99	114.086	40.6019	91.7272	144.905	45.1661	81.1041	133.262	64.4797	63.3745	118.06	71.2291	48.8686	126.173	24.8619	78.2296	109.028	30.2743	65.0692	87.2921	36.0982	44.0632	106.621	25.6581	101.28	93.397	44.7703	118.999	116.254	48.6649	147.619	100.34	14.6115	116.361	95.8698	34.6196	137.244	120.569	37.2713	156.689	144.938	-8.77882	130.47	158.646	-10.0659	158.138	171.928	15.4931	135.738	
35	0.291667	184.381	28.426	152.499	173.506	44.8721	121.13	159.82	44.826	98.4059	139.848	29.1667	88.3929	175.746	27.5834	75.8649	165.416	39.4851	59.7769	158.157	54.2484	40.2946	146.531	6.82714	73.5523	133.289	15.5886	56.0235	115.961	23.3319	35.5735	124.809	15.0031	95.4798	120.14	44.5987	109.292	135.043	41.8457	141.266	116.277	12.1134	107.779	114.188	32.784	122.584	134.64	33.4883	148.939	155.995	-21.7264	129.174	162.862	-24.9122	162.109	182.606	-7.73428	138.917	
36	0.3	199.098	10.2935	151.164	192.038	25.1481	124.551	181.401	19.4814	93.5804	164.117	7.62896	81.7289	198.745	-1.44899	78.8931	199.123	13.471	59.4653	190.372	23.1327	37.7345	174.177	-16.1531	74.3856	162.334	-9.79584	54.8714	152.767	-1.75533	26.2042	149.126	-4.17401	90.5335	142.678	26.482	101.113	155.39	26.776	131.533	134.49	-9.19172	103.892	133.842	21.8864	116.532	148.453	26.1763	138.63	167.767	-37.1184	133.451	172.366	-38.682	161.331	196.577	-25.5103	147.946	
37	0.308333	209.258	1.81464	159.339	209.459	12.7278	125.698	203.025	1.27995	94.6152	187.721	-14.3488	82.2773	223.995	-20.277	89.3372	225.596	-11.7751	66.1667	228.306	-0.967786	41.5995	199.514	-39.0423	81.4073	191.772	-35.918	57.6529	186.119	-32.0715	28.3874	173.127	-25.5126	89.4202	165.211	7.29287	94.5029	173.519	12.8527	123.848	155.773	-26.0995	100.311	153.584	3.9678	107.403	166.424	13.7408	133.374	184.345	-52.3795	141.301	181.549	-50.3396	168.343	211.229	-36.2033	152.178	
38	0.316667	220.187	3.14438	164.251	223.991	8.38233	129.833	224.647	-6.74062	101.184	214.29	-23.2171	88.3689	250.063	-25.0556	97.396	256.099	-17.658	75.5802	257.556	-13.2427	49.5586	226.227	-49.2526	92.8946	228.266	-47.4257	68.1367	229.274	-49.2153	37.0733	200.432	-34.2855	91.34	185.598	-9.32763	89.9218	189.265	3.71513	121.965	182.814	-41.5607	102.599	172.06	-14.7415	100.508	177.295	4.30484	124.502	204.433	-54.719	148.804	199.456	-49.2203	175.262	227.11	-36.4997	163.703	
39	0.325	225.153	17.1577	165.758	232.185	14.3189	130.631	237.038	-1.16615	108.237	233.556	-18.7425	94.9818	266.582	-8.96615	113.025	274.979	-2.74162	89.2563	281.341	-0.201004	62.7855	256.987	-38.3309	101.719	258.809	-42.7815	76.3428	262.943	-47.8	48.6361	221.755	-34.6324	95.6682	204.214	-10.807	92.0625	198.93	2.24135	123.378	210.446	-41.9859	105.891	191.355	-18.7947	99.7614	186.134	0.918225	124.366	224.311	-49.8761	155.025	210.786	-42.3626	182.886	240.824	-20.8563	171.494	
40	0.333333	220.682	28.1877	163.24	226.472	29.2119	131.48	239.124	17.7696	108.034	245.083	-4.99922	97.529	271.522	15.856	115.528	276.885	19.2542	91.2276	285.552	23.1178	63.7955	269.865	-19.9175	109.496	276.411	-19.9794	87.117	287.993	-26.5298	59.0656	238.464	-26.7679	102.99	214.208	-9.11204	92.0652	198.368	1.85177	119.37	226.245	-38.5142	107.485	202.378	-20.7251	100.046	187.613	-3.54003	121.056	241.385	-32.0252	158.892	224.843	-30.1946	185.681	241.423	-3.16136	173.618	
41	0.341667	206.133	34.0358	158.971	210.283	40.1043	127.074	229.551	29.3699	105.318	243.687	11.3835	91.5988	259.224	40.5815	110.327	263.574	43.8894	85.7117	270.011	48.4924	63.4587	273.384	7.40034	105.929	280.723	2.02752	84.9853	294.562	-2.10074	59.1595	243.417	-12.4426	98.9765	217.383	-6.69829	89.1959	196.42	0.390813	119.51	238.28	-29.0198	109.835	209.162	-17.0055	100.494	189.06	-9.5841	118.988	248.287	-14.1826	160.935	230.673	-14.9257	181.438	236.377	18.8645	171.536	
42	0.35	188.938	33.9879	150.912	188.872	37.8224	120.224	208.349	35.1629	94.922	228.109	21.6741	81.9402	237.066	50.2869	95.5903	237.917	53.0855	75.3317	243.068	57.4714	51.1167	260.018	23.0023	97.6049	266.925	20.4852	79.6825	281.919	20.7307	54.2635	237.081	0.16768	95.7982	208.759	-8.87692	86.1618	188.165	-3.35875	109.827	238.025	-19.9652	106.006	209.323	-23.1926	97.9509	185.447	-14.2158	119.918	243.63	4.35779	155.003	229.124	-1.077	177.204	223.151	31.7149	160.194	
43	0.358333	167.56	30.2854	142.438	169	28.3485	112.492	183.997	27.2703	88.1298	204.325	17.7066	77.1628	209.923	48.827	86.8728	206.713	53.2887	57.811	210.464	54.253	36.8868	235.617	30.5624	89.4608	244.15	30.0453	64.6816	256.877	28.5394	42.2089	226.414	1.73005	89.4832	197.634	-15.532	83.4431	180.844	-15.7754	110.157	229.873	-15.8905	99.7191	201.979	-24.3588	97.784	181.63	-20.3314	121.539	230.533	16.6355	146.033	219.684	12.0067	170.646	204.566	33.969	153.391	
44	0.366667	158.477	22.0581	135.781	153.823	18.6618	108.356	168.298	15.1923	83.6837	190.495	6.08094	72.0491	187.614	41.2886	71.6029	183.737	38.675	50.892	189.795	35.5004	24.0426	218.641	26.2772	76.1614	228.438	19.806	54.3895	238.505	17.7186	29.3252	212.244	-6.65042	82.3862	187.576	-25.9097	83.1042	173.27	-22.8394	111.138	217.519	-14.8416	98.3159	192.896	-32.0733	101.542	174.845	-22.3449	122.19	221.297	21.1551	134.47	207.855	15.4272	166.504	188.297	35.8396	144.27	
45	0.375	145.528	14.3472	133.151	141.946	7.00198	102.999	155.321	1.73912	77.631	180.142	-8.19273	67.7872	172.782	23.8022	68.4565	164.618	15.8047	44.6068	166.954	8.96265	17.3914	202.174	14.9777	69.6381	208.323	6.41708	49.3454	221.38	-3.43262	23.4641	201.281	-12.7423	83.2346	179.935	-38.4616	85.9772	163.794	-32.3185	113.65	209.29	-26.1618	97.1198	187.258	-39.3161	102.66	168.191	-32.2483	130.324	205.128	19.1891	128.967	199.943	18.9637	162.085	173.466	33.7061	132.968	
46	0.383333	131.976	8.55255	130.962	131.378	-4.85383	104.969	146.388	-15.0507	77.9003	166.614	-22.6601	73.0815	155.134	6.257	64.9032	154.2	-7.10615	43.7908	155.367	-19.9665	17.8341	190.283	-0.05155	68.0612	196.317	-12.8298	46.3238	207.198	-26.4418	24.3285	192.083	-22.8911	84.0578	173.444	-49.7046	91.3553	156.856	-40.6001	118.521	202.517	-34.6771	100.26	178.303	-48.9833	114.076	161.145	-34.0176	130.844	199.113	13.6385	122.627	190.923	21.4818	152.377	165.124	28.0737	128.719	
47	0.391667	127.147	5.64529	136.391	121.05	-12.7765	106.999	134.142	-24.9482	84.0476	160.738	-32.3825	79.3861	144.351	-4.7543	67.4034	144.841	-22.3726	45.9296	140.15	-36.7608	26.7833	182.783	-12.6989	68.5845	186.994	-29.1743	47.2495	193.65	-45.6158	25.5428	184.982	-31.4721	88.4503	167.878	-59.2763	101.146	150.421	-48.4892	124.406	194.027	-38.0024	105.115	171.401	-51.6511	115.441	152.889	-37.3319	134.758	190.603	13.6732	123.512	179.83	24.2762	152.428	154.742	26.5192	129.164	
48	0.4	117.743	7.16187	139.121	109.91	-13.8799	114.929	124.436	-29.6798	91.2015	144.408	-39.5903	85.1462	133.788	-15.0234	67.2361	125.602	-28.5766	55.3867	126.58	-47.931	37.1702	169.109	-23.0947	72.0884	168.535	-40.6715	54.7532	172.857	-62.2182	35.0488	170.493	-39.0972	91.1882	156.31	-62.939	104.454	139.259	-47.7565	135.216	183.552	-42.4875	110.574	162.032	-57.8856	126.562	143.84	-37.2869	140.522	181.995	9.17394	125.077	177.642	22.3694	149.408	148.71	25.2867	128.073	
49	0.408333	116.939	15.388	143.47	104.673	-4.94063	119.375	108.017	-22.3969	100.882	130.34	-38.1451	92.6724	121.324	-11.6307	77.0513	107.795	-31.1558	60.6063	100.108	-50.2494	45.5586	148.065	-24.3016	78.5446	147.391	-51.1787	62.2579	142.398	-70.6956	47.6268	153.978	-45.7664	98.5204	132.045	-60.9561	111.804	122.016	-42.1058	142.25	164.281	-45.4913	113.772	142.725	-56.2189	133.485	130.679	-32.9399	148.13	175.827	2.98523	123.549	173.225	18.4758	149.618	148.52	27.5046	129.964	
50	0.416667	117.069	30.9197	145.984	97.3771	14.5629	127.017	97.6316	-4.35364	107.957	114.191	-27.7498	97.9392	107.914	2.80683	80.7644	90.1731	-10.5934	68.6943	76.6207	-27.3116	56.3453	129.086	-23.5194	79.8717	117.892	-39.8517	70.3223	109.078	-65.3618	57.4378	132.284	-41.2191	103.39	108.836	-49.3958	120.693	108.897	-27.3726	150.454	140.949	-44.8059	118.97	118.067	-43.65	136.88	123.081	-20.3611	158.165	167.38	-0.692717	121.437	175.953	14.9666	147.905	152.773	29.0903	133.145	
51	0.425	128.342	46.9803	151.762	105.447	34.995	129.677	96.7172	17.0672	113.75	102.707	-9.46086	105.356	109.381	20.1221	85.6492	87.119	13.8598	75.1565	63.0126	6.91512	62.2155	119.175	-8.92474	86.3742	99.4957	-21.3407	74.8393	76.4333	-37.4031	59.3791	113.712	-27.7323	108.875	87.2494	-21.1311	129.401	99.9342	-3.72279	156.078	118.287	-33.36	123.427	103.108	-27.3756	145.473	116.314	0.403161	163.252	161.949	-4.23576	122.888	178.19	4.77607	150.835	159.86	31.8599	132.121	
52	0.433333	142.751	53.7723	150.269	114.424	52.945	131.948	101.195	34.9104	114.969	95.7257	11.4635	107.827	109.308	34.3446	85.6383	87.1469	39.5613	75.0226	61.7664	33.248	63.0231	110.572	1.62558	86.1893	89.4443	0.155971	76.1321	64.2825	-12.062	63.3729	98.4908	-6.9885	111.601	80.6964	3.35935	133.576	100.207	18.381	158.801	105.627	-17.4856	126.345	93.1821	-2.04545	148.181	113.328	15.6568	165.243	156.106	-8.02286	125.683	174.635	2.40598	153.373	164.314	26.5649	133.436	
53	0.441667	155.673	55.8072	150.699	129.291	65.837	131.433	110.727	54.7703	115.19	97.2209	27.5764	106.463	121.039	46.9447	87.0636	100.661	54.2364	76.4373	77.2154	58.7302	64.0916	111.964	18.493	86.2046	86.3441	17.2204	73.0786	63.6198	14.7831	61.7337	93.1975	10.3221	113.067	80.7659	26.1282	134.826	106.84	39.2969	156.009	97.7563	-2.57765	127.7	90.2247	14.9588	150.22	113.723	30.7207	164.559	151.22	-6.46581	127.577	169.772	-3.22655	152.079	169.917	26.1327	131.383	
54	0.45	165.844	51.8971	150.576	146.401	68.0689	132.347	125.443	63.363	109.996	108.77	48.0666	103.158	133.568	56.499	81.0311	118.308	72.4879	68.6246	101.373	81.0548	56.554	116.812	30.547	81.5448	95.0483	37.8838	67.443	76.7176	44.3102	53.9218	99.2435	31.1195	108.047	87.9506	46.6784	130.573	111.967	51.4462	153.226	95.5216	18.6724	122.785	95.7363	37.1166	144.815	123.907	39.5241	163.533	145.792	-0.567837	123.564	163.063	-7.24315	152.256	172.582	21.7267	128.641	
55	0.458333	173.991	45.5195	148.072	158.798	62.3922	125.976	141.926	64.6098	106.266	120.894	47.3894	96.0965	153.176	55.2003	78.4529	140.061	70.2456	63.6425	127.624	82.9433	48.6893	129.499	30.8554	77.0967	112.511	41.6315	61.7849	91.1176	50.9526	42.5102	108.963	31.394	101.345	103.83	58.1632	120.845	121.244	53.3346	149.151	103.964	22.4391	114.435	101.877	43.4737	138.006	128.074	44.5829	154.518	147.575	-4.90301	120.843	161.483	-10.659	152.101	179.085	16.5022	129.266	
